{
    "asset" : {
        "generator" : "Khronos glTF Blender I/O v1.4.40",
        "version" : "2.0"
    },
    "scene" : 0,
    "scenes" : [
        {
            "name" : "Scene",
            "nodes" : [
                6
            ]
        }
    ],
    "nodes" : [
        {
            "name" : "FanBlades",
            "rotation" : [
                5.516540568351047e-06,
                -1.1443783876075031e-07,
                -0.0010070622665807605,
                0.9999995827674866
            ],
            "translation" : [
                0.000760276336222887,
                0.1217912808060646,
                4.164533947914606e-06
            ]
        },
        {
            "name" : "SpeedSwitch",
            "rotation" : [
                -0.003274408169090748,
                -0.00042829231824725866,
                0.7063173055648804,
                0.7078877091407776
            ],
            "translation" : [
                -0.06595909595489502,
                -0.07618055492639542,
                0.025845345109701157
            ]
        },
        {
            "name" : "OscScwitch",
            "rotation" : [
                -0.0032744272612035275,
                -0.00042831088649109006,
                0.7063173055648804,
                0.7078877091407776
            ],
            "translation" : [
                -0.06571551412343979,
                -0.07618048042058945,
                -0.02073098160326481
            ]
        },
        {
            "children" : [
                0,
                1,
                2
            ],
            "name" : "Head",
            "rotation" : [
                0.0018453440861776471,
                0.0018579659517854452,
                -0.7048937082290649,
                0.7093080878257751
            ],
            "translation" : [
                0.04771102964878082,
                1.063612699508667,
                0
            ]
        },
        {
            "children" : [
                3
            ],
            "name" : "Root"
        },
        {
            "mesh" : 0,
            "name" : "PedestalFan",
            "skin" : 0
        },
        {
            "children" : [
                5,
                4
            ],
            "name" : "PedestalFan_Rig"
        }
    ],
    "meshes" : [
        {
            "name" : "PedestalFan",
            "primitives" : [
                {
                    "attributes" : {
                        "POSITION" : 0,
                        "NORMAL" : 1,
                        "TEXCOORD_0" : 2,
                        "JOINTS_0" : 3,
                        "WEIGHTS_0" : 4
                    },
                    "indices" : 5
                }
            ]
        }
    ],
    "skins" : [
        {
            "inverseBindMatrices" : 6,
            "joints" : [
                4,
                3,
                0,
                1,
                2
            ],
            "name" : "PedestalFan_Rig"
        }
    ],
    "accessors" : [
        {
            "bufferView" : 0,
            "componentType" : 5126,
            "count" : 50013,
            "max" : [
                0.294320285320282,
                1.3906491994857788,
                0.3676674962043762
            ],
            "min" : [
                -0.2372424155473709,
                -0.0024477243423461914,
                -0.326875776052475
            ],
            "type" : "VEC3"
        },
        {
            "bufferView" : 1,
            "componentType" : 5126,
            "count" : 50013,
            "type" : "VEC3"
        },
        {
            "bufferView" : 2,
            "componentType" : 5126,
            "count" : 50013,
            "type" : "VEC2"
        },
        {
            "bufferView" : 3,
            "componentType" : 5121,
            "count" : 50013,
            "type" : "VEC4"
        },
        {
            "bufferView" : 4,
            "componentType" : 5126,
            "count" : 50013,
            "type" : "VEC4"
        },
        {
            "bufferView" : 5,
            "componentType" : 5123,
            "count" : 161064,
            "type" : "SCALAR"
        },
        {
            "bufferView" : 6,
            "componentType" : 5126,
            "count" : 5,
            "type" : "MAT4"
        }
    ],
    "bufferViews" : [
        {
            "buffer" : 0,
            "byteLength" : 600156,
            "byteOffset" : 0
        },
        {
            "buffer" : 0,
            "byteLength" : 600156,
            "byteOffset" : 600156
        },
        {
            "buffer" : 0,
            "byteLength" : 400104,
            "byteOffset" : 1200312
        },
        {
            "buffer" : 0,
            "byteLength" : 200052,
            "byteOffset" : 1600416
        },
        {
            "buffer" : 0,
            "byteLength" : 800208,
            "byteOffset" : 1800468
        },
        {
            "buffer" : 0,
            "byteLength" : 322128,
            "byteOffset" : 2600676
        },
        {
            "buffer" : 0,
            "byteLength" : 320,
            "byteOffset" : 2922804
        }
    ],
    "buffers" : [
        {
            "byteLength" : 2923124,
            "uri" : "data:application/octet-stream;base64,"
        }
    ]
}
