{
    "asset" : {
        "generator" : "Khronos glTF Blender I/O v3.4.50",
        "version" : "2.0"
    },
    "scene" : 0,
    "scenes" : [
        {
            "name" : "Scene",
            "nodes" : [
                1
            ]
        }
    ],
    "nodes" : [
        {
            "mesh" : 0,
            "name" : "barstool",
            "translation" : [
                0,
                27.46489143371582,
                -3.814697265625e-06
            ]
        },
        {
            "children" : [
                0
            ],
            "name" : "barstool_grp"
        }
    ],
    "materials" : [
        {
            "doubleSided" : true,
            "name" : "barstool_mat.001",
            "normalTexture" : {
                "index" : 0
            },
            "occlusionTexture" : {
                "index" : 1
            },
            "pbrMetallicRoughness" : {
                "baseColorTexture" : {
                    "index" : 2
                },
                "metallicRoughnessTexture" : {
                    "index" : 1
                }
            }
        }
    ],
    "meshes" : [
        {
            "name" : "Mesh",
            "primitives" : [
                {
                    "attributes" : {
                        "POSITION" : 0,
                        "TEXCOORD_0" : 1,
                        "NORMAL" : 2
                    },
                    "indices" : 3,
                    "material" : 0
                }
            ]
        }
    ],
    "textures" : [
        {
            "sampler" : 0,
            "source" : 0
        },
        {
            "sampler" : 0,
            "source" : 1
        },
        {
            "sampler" : 0,
            "source" : 2
        }
    ],
    "images" : [
        {
            "mimeType" : "image/png",
            "name" : "barstool_Normal",
            "uri" : "barstool_Normal.png"
        },
        {
            "mimeType" : "image/png",
            "name" : "barstool_AO-barstool_Roughness-barstool_Metallic",
            "uri" : "barstool_AO-barstool_Roughness-barstool_Metallic.png"
        },
        {
            "mimeType" : "image/png",
            "name" : "barstool_bcolor",
            "uri" : "barstool_bcolor.png"
        }
    ],
    "accessors" : [
        {
            "bufferView" : 0,
            "componentType" : 5126,
            "count" : 11509,
            "max" : [
                13.78367805480957,
                27.46473503112793,
                15.561079025268555
            ],
            "min" : [
                -13.78367805480957,
                -27.46473503112793,
                -15.561079025268555
            ],
            "type" : "VEC3"
        },
        {
            "bufferView" : 1,
            "componentType" : 5126,
            "count" : 11509,
            "type" : "VEC2"
        },
        {
            "bufferView" : 2,
            "componentType" : 5126,
            "count" : 11509,
            "type" : "VEC3"
        },
        {
            "bufferView" : 3,
            "componentType" : 5123,
            "count" : 64176,
            "type" : "SCALAR"
        }
    ],
    "bufferViews" : [
        {
            "buffer" : 0,
            "byteLength" : 138108,
            "byteOffset" : 0,
            "target" : 34962
        },
        {
            "buffer" : 0,
            "byteLength" : 92072,
            "byteOffset" : 138108,
            "target" : 34962
        },
        {
            "buffer" : 0,
            "byteLength" : 138108,
            "byteOffset" : 230180,
            "target" : 34962
        },
        {
            "buffer" : 0,
            "byteLength" : 128352,
            "byteOffset" : 368288,
            "target" : 34963
        }
    ],
    "samplers" : [
        {
            "magFilter" : 9729,
            "minFilter" : 9987
        }
    ],
    "buffers" : [
        {
            "byteLength" : 496640,
            "uri" : "barstool.bin"
        }
    ]
}
