# This file uses inches as units for non-parametric coordinates.

v -22.860001 0.097740 25.498693
v 22.860001 0.097740 25.498693
v -22.860001 45.817741 45.720001
v 22.860001 45.817741 45.720001
v -22.860001 45.817741 -45.720001
v 22.860001 45.817741 -45.720001
v -22.860001 6.398291 23.527020
v 22.860001 6.398291 23.527020
v 22.860001 41.852707 39.630783
v -22.860001 41.852707 39.630783
v 22.860001 42.012737 -32.032112
v -22.860001 42.012737 -32.032112
v -19.244581 42.326553 -42.342789
v -20.330050 42.326824 -42.338333
v -19.244638 42.693977 -43.688835
v -19.183607 43.694408 -44.126076
v -19.185221 43.134689 -42.690643
v -19.183636 44.128201 -43.125282
v -20.330050 43.692757 -44.129803
v -20.330050 44.130032 -43.130207
v -19.244577 43.210697 -41.691158
v -20.330050 43.217545 -41.703876
v -20.330050 42.724262 -43.709557
v -20.330050 1.103569 -24.312832
v -19.243280 1.103622 -25.442137
v -20.330050 1.103622 -25.442137
v -19.243046 1.103604 -24.341705
v -20.330050 1.110787 23.941004
v -19.243073 1.101252 22.842665
v -19.243067 0.026536 22.842665
v -20.330050 0.026536 23.938633
v -19.243048 -0.028442 -24.340263
v -19.289446 -0.028178 -25.442026
v -20.330050 -0.028340 -24.312891
v -20.330050 -0.027996 -25.442137
v -19.243063 1.099521 21.915548
v -20.330050 1.102420 21.908438
v -19.242987 1.104966 23.948704
v -20.330050 0.022843 21.902704
v -19.243063 0.022836 21.900099
v -19.315237 0.026536 23.938633
v -19.243006 1.629420 23.126671
v -20.330050 1.635254 23.118908
v -19.243029 1.102017 22.847437
v 19.213573 42.326553 -42.342789
v 20.299042 42.326824 -42.338333
v 19.213631 42.693977 -43.688835
v 19.152599 43.694408 -44.126076
v 19.154213 43.134689 -42.690643
v 19.152628 44.128201 -43.125282
v 20.299042 43.692757 -44.129803
v 20.299042 44.130032 -43.130207
v 19.213570 43.210697 -41.691158
v 20.299042 43.217545 -41.703876
v 20.299042 42.724262 -43.709557
v 20.299042 1.103569 -24.312832
v 19.212273 1.103622 -25.442137
v 20.299042 1.103622 -25.442137
v 19.212038 1.103604 -24.341705
v 20.299042 1.110787 23.941004
v 19.212065 1.101252 22.842665
v 19.212059 0.026536 22.842665
v 20.299042 0.026536 23.938633
v 19.212040 -0.028442 -24.340263
v 19.258438 -0.028178 -25.442026
v 20.299042 -0.028340 -24.312891
v 20.299042 -0.027996 -25.442137
v 19.212055 1.099521 21.915548
v 20.299042 1.102420 21.908438
v 19.211979 1.104966 23.948704
v 20.299042 0.022843 21.902704
v 19.212055 0.022836 21.900099
v 19.284229 0.026536 23.938633
v 19.211998 1.629420 23.126671
v 20.299042 1.635254 23.118908
v 19.212021 1.102017 22.847437
vt 0.867980 0.614202
vt 0.641454 0.614201
vt 0.641454 0.317539
vt 0.867980 0.317539
vt 0.015124 0.916635
vt 0.015124 0.525539
vt 0.331348 0.525539
vt 0.331348 0.916635
vt 0.340118 0.515505
vt 0.340118 0.015112
vt 0.631995 0.015112
vt 0.631995 0.515505
vt 0.340118 0.527248
vt 0.631993 0.527249
vt 0.631993 0.917449
vt 0.340118 0.917449
vt 0.641454 0.310391
vt 0.641454 0.012729
vt 0.931295 0.012729
vt 0.931295 0.310392
vt 0.015124 0.015112
vt 0.331565 0.015112
vt 0.331565 0.513796
vt 0.015124 0.513796
vt 0.981281 0.042460
vt 0.955263 0.015112
vt 0.955412 0.535477
vt 0.981126 0.448272
vt 0.918823 0.916928
vt 0.895991 0.875444
vt 0.896868 0.405678
vt 0.918766 0.317438
vt 0.962205 0.533154
vt 0.988944 0.563654
vt 0.986584 0.802884
vt 0.962226 0.840297
vt 0.869580 0.317503
vt 0.892930 0.401606
vt 0.893770 0.841890
vt 0.869398 0.879293
vt 0.648273 0.618692
vt 0.672626 0.656108
vt 0.674949 0.895339
vt 0.648206 0.925835
vt 0.948463 0.819992
vt 0.922730 0.736587
vt 0.922585 0.331132
vt 0.948625 0.300034
vt 0.787188 0.923154
vt 0.797086 0.922925
vt 0.807468 0.922634
vt 0.797621 0.922640
vt 0.548651 0.971795
vt 0.542180 0.971795
vt 0.542169 0.963538
vt 0.548853 0.963977
vt 0.528917 0.952573
vt 0.517767 0.952588
vt 0.522730 0.948518
vt 0.455272 0.944830
vt 0.006999 0.944842
vt 0.007049 0.936666
vt 0.455241 0.936666
vt 0.464904 0.972163
vt 0.474902 0.971705
vt 0.474936 0.980321
vt 0.464993 0.980321
vt 0.789544 0.769417
vt 0.778807 0.769417
vt 0.812439 0.769588
vt 0.801990 0.769759
vt 0.690966 0.623572
vt 0.697203 0.623572
vt 0.690522 0.629820
vt 0.481905 0.980321
vt 0.481879 0.971705
vt 0.776240 0.922573
vt 0.766323 0.922573
vt 0.786672 0.923093
vt 0.776756 0.922857
vt 0.555158 0.979880
vt 0.542169 0.972699
vt 0.549372 0.972734
vt 0.021790 0.960827
vt 0.021633 0.968191
vt 0.010544 0.968176
vt 0.006999 0.962055
vt 0.745499 0.901911
vt 0.739207 0.902284
vt 0.739235 0.896936
vt 0.013385 0.952632
vt 0.017679 0.945216
vt 0.517727 0.945198
vt 0.521762 0.960817
vt 0.526042 0.968247
vt 0.859417 0.975488
vt 0.862083 0.982205
vt 0.753142 0.623573
vt 0.753132 0.869092
vt 0.746162 0.869094
vt 0.746162 0.623572
vt 0.745098 0.625928
vt 0.739283 0.623572
vt 0.826712 0.971795
vt 0.826712 0.963968
vt 0.813582 0.769417
vt 0.824019 0.769418
vt 0.767215 0.769589
vt 0.777950 0.769759
vt 0.889146 0.914175
vt 0.889146 0.907680
vt 0.896587 0.907217
vt 0.896628 0.914175
vt 0.731978 0.623572
vt 0.731978 0.887285
vt 0.725297 0.887121
vt 0.725297 0.623613
vt 0.683675 0.887084
vt 0.683567 0.623575
vt 0.690524 0.623572
vt 0.690311 0.887048
vt 0.690522 0.898810
vt 0.690522 0.635194
vt 0.697203 0.635179
vt 0.697203 0.898654
vt 0.711390 0.623572
vt 0.711062 0.887285
vt 0.704444 0.887189
vt 0.704432 0.623572
vt 0.866675 0.972608
vt 0.869342 0.979325
vt 0.834273 0.964300
vt 0.834272 0.971795
vt 0.697203 0.905092
vt 0.690808 0.905091
vt 0.013090 0.980321
vt 0.013036 0.972151
vt 0.683629 0.898671
vt 0.690293 0.898655
vt 0.711066 0.892571
vt 0.704461 0.892563
vt 0.790399 0.769416
vt 0.800889 0.769417
vt 0.808053 0.917208
vt 0.818281 0.916941
vt 0.834409 0.769950
vt 0.824014 0.769683
vt 0.818486 0.916674
vt 0.828679 0.916674
vt 0.007359 0.980321
vt 0.007305 0.972151
vt 0.006999 0.952649
vt 0.012784 0.948623
vt 0.532428 0.968264
vt 0.787188 0.774601
vt 0.797086 0.774831
vt 0.797621 0.774601
vt 0.807468 0.774607
vt 0.827794 0.962686
vt 0.827591 0.954869
vt 0.834275 0.954429
vt 0.834264 0.962686
vt 0.006999 0.960380
vt 0.013187 0.956325
vt 0.018149 0.960396
vt 0.455273 0.927569
vt 0.455242 0.935732
vt 0.007049 0.935732
vt 0.006999 0.927558
vt 0.933976 0.936895
vt 0.934065 0.928737
vt 0.944008 0.928737
vt 0.943974 0.937353
vt 0.778807 0.627344
vt 0.789544 0.627344
vt 0.801990 0.627344
vt 0.812439 0.627516
vt 0.703715 0.623572
vt 0.704158 0.629820
vt 0.697477 0.623572
vt 0.950977 0.928737
vt 0.950951 0.937353
vt 0.766323 0.774601
vt 0.776240 0.774601
vt 0.776756 0.774837
vt 0.786672 0.774601
vt 0.856354 0.990290
vt 0.862139 0.983144
vt 0.869342 0.983109
vt 0.517960 0.980691
vt 0.532750 0.981919
vt 0.529205 0.988040
vt 0.518116 0.988055
vt 0.738544 0.623945
vt 0.732280 0.628920
vt 0.732252 0.623572
vt 0.522535 0.960440
vt 0.018190 0.953006
vt 0.518240 0.953023
vt 0.013707 0.988111
vt 0.017987 0.980681
vt 0.549428 0.992616
vt 0.552094 0.985898
vt 0.754276 0.623572
vt 0.761256 0.623572
vt 0.761256 0.869093
vt 0.754286 0.869092
vt 0.738143 0.899927
vt 0.732329 0.902284
vt 0.549730 0.962686
vt 0.549731 0.954859
vt 0.813582 0.627345
vt 0.824019 0.627344
vt 0.767215 0.627515
vt 0.777950 0.627344
vt 0.881338 0.907217
vt 0.888820 0.907217
vt 0.888779 0.914175
vt 0.881338 0.913712
vt 0.718342 0.623572
vt 0.725023 0.623613
vt 0.725023 0.887121
vt 0.718342 0.887285
vt 0.837988 0.945889
vt 0.837948 0.953337
vt 0.542169 0.953577
vt 0.542173 0.945767
vt 0.704158 0.898811
vt 0.697477 0.898655
vt 0.697477 0.635179
vt 0.704158 0.635194
vt 0.711387 0.623572
vt 0.718345 0.623573
vt 0.718333 0.887189
vt 0.711716 0.887285
vt 0.542169 0.989735
vt 0.544837 0.983018
vt 0.542170 0.962686
vt 0.542169 0.955191
vt 0.703873 0.905092
vt 0.697477 0.905093
vt 0.482108 0.936907
vt 0.482162 0.928737
vt 0.850996 0.945836
vt 0.850978 0.953317
vt 0.718317 0.892563
vt 0.711711 0.892570
vt 0.790399 0.627344
vt 0.800889 0.627344
vt 0.808053 0.774601
vt 0.818281 0.774868
vt 0.824014 0.627611
vt 0.834409 0.627344
vt 0.818486 0.774601
vt 0.828679 0.774601
vt 0.476377 0.936907
vt 0.476431 0.928737
vt 0.523135 0.956431
vt 0.528920 0.960457
vt 0.007321 0.988129
vn 0.000000 0.413550 -0.910481
vn 0.000000 0.413550 -0.910481
vn 0.000000 0.413550 -0.910481
vn 0.000000 0.413550 -0.910481
vn 0.000000 -0.999997 -0.002233
vn 0.000000 -0.999997 -0.002233
vn 0.000000 -0.999997 -0.002233
vn 0.000000 -0.999997 -0.002233
vn 0.000000 0.841882 0.539662
vn 0.000000 0.841882 0.539662
vn 0.000000 0.841882 0.539662
vn 0.000000 0.841882 0.539662
vn 0.000000 -0.404489 0.914543
vn 0.000000 -0.404489 0.914543
vn 0.000000 -0.404489 0.914543
vn 0.000000 -0.404489 0.914543
vn 0.000000 1.000000 0.000000
vn 0.000000 1.000000 0.000000
vn 0.000000 1.000000 0.000000
vn 0.000000 1.000000 0.000000
vn 0.000000 -0.841519 -0.540227
vn 0.000000 -0.841519 -0.540227
vn 0.000000 -0.841519 -0.540227
vn 0.000000 -0.841519 -0.540227
vn 1.000000 0.000000 0.000000
vn 1.000000 0.000000 0.000000
vn 1.000000 -0.000000 0.000000
vn 1.000000 -0.000000 0.000000
vn -1.000000 0.000000 0.000000
vn -1.000000 0.000000 0.000000
vn -1.000000 0.000000 0.000000
vn -1.000000 0.000000 0.000000
vn 1.000000 -0.000000 0.000000
vn 1.000000 -0.000000 0.000000
vn -1.000000 0.000000 0.000000
vn -1.000000 0.000000 0.000000
vn 0.003178 -0.401766 -0.915737
vn 0.004913 -0.399411 -0.916759
vn 0.004913 -0.399411 -0.916759
vn 0.003176 -0.401769 -0.915735
vn 0.998069 0.023556 0.057481
vn 0.998069 0.023556 0.057481
vn 0.998069 0.023556 0.057481
vn -0.000568 -0.841652 -0.540021
vn -0.000568 -0.841652 -0.540021
vn -0.000568 -0.841652 -0.540021
vn -0.000568 -0.841652 -0.540021
vn -0.000195 0.841716 0.539921
vn -0.000986 0.842374 0.538893
vn -0.000986 0.842374 0.538893
vn -0.000196 0.841716 0.539921
vn 0.000000 -1.000000 -0.000000
vn 0.000000 -1.000000 -0.000000
vn 0.000000 -1.000000 -0.000000
vn 0.001579 0.916845 -0.399240
vn 0.001579 0.916845 -0.399240
vn 0.001579 0.916845 -0.399240
vn 0.001579 0.916845 -0.399240
vn -1.000000 0.000001 0.000000
vn -1.000000 0.000000 0.000000
vn -1.000000 0.000001 0.000000
vn -1.000000 -0.000001 0.000000
vn -1.000000 -0.000001 0.000000
vn -1.000000 0.000000 0.000000
vn -1.000000 0.000000 0.000000
vn 1.000000 -0.000662 -0.000297
vn 0.996296 -0.082945 -0.022683
vn 1.000000 -0.000355 -0.000214
vn 1.000000 -0.000007 -0.000028
vn 1.000000 -0.000007 -0.000028
vn 1.000000 -0.000166 0.000187
vn 1.000000 -0.000128 0.000136
vn -1.000000 -0.000001 0.000000
vn -1.000000 -0.000001 0.000000
vn -1.000000 0.000001 0.000000
vn -1.000000 0.000001 0.000000
vn 0.996960 -0.046230 0.062722
vn 0.014100 0.400372 0.916244
vn 0.014100 0.400372 0.916244
vn 0.014100 0.400372 0.916244
vn 0.014100 0.400372 0.916244
vn 1.000000 -0.000019 -0.000122
vn 1.000000 -0.000019 -0.000122
vn 0.003134 -0.401826 -0.915711
vn 0.003134 -0.401826 -0.915711
vn -0.003679 -0.005630 0.999977
vn -0.000106 -0.009231 0.999957
vn -0.000090 -0.009247 0.999957
vn -0.003679 -0.005630 0.999977
vn 0.001318 0.999999 0.000057
vn 0.001318 0.999999 0.000057
vn 0.001318 0.999999 0.000057
vn 0.001318 0.999999 0.000057
vn -1.000000 0.000001 0.000000
vn -1.000000 0.000001 0.000000
vn -1.000000 0.000001 0.000000
vn -1.000000 0.000001 0.000000
vn -0.000035 -0.999999 0.001108
vn 0.000005 -0.999999 0.001151
vn 0.000005 -0.999999 0.001151
vn -0.000035 -0.999999 0.001108
vn 1.000000 -0.000002 0.000000
vn 1.000000 -0.000002 0.000000
vn 1.000000 -0.000002 0.000000
vn 1.000000 -0.000002 0.000000
vn -1.000000 0.000000 0.000000
vn -1.000000 0.000000 0.000000
vn -1.000000 0.000000 0.000000
vn -1.000000 0.000000 0.000000
vn 0.000052 -0.000050 -1.000000
vn 0.000052 -0.000050 -1.000000
vn 0.000052 -0.000050 -1.000000
vn 0.000052 -0.000050 -1.000000
vn -0.000137 -1.000000 -0.000270
vn -0.000137 -1.000000 -0.000270
vn -0.000137 -1.000000 -0.000270
vn -0.000137 -1.000000 -0.000270
vn -0.000167 0.841717 0.539919
vn -0.000166 0.841718 0.539918
vn -1.000000 0.000000 0.000000
vn -1.000000 0.000000 0.000000
vn 0.001251 -0.999996 0.002482
vn 0.001251 -0.999996 0.002482
vn 1.000000 0.000003 0.000007
vn 1.000000 0.000003 0.000007
vn 0.000000 0.999994 -0.003358
vn 0.000000 0.999994 -0.003358
vn 0.000000 0.999994 -0.003358
vn 0.000000 0.999994 -0.003358
vn 0.000106 -0.009231 0.999957
vn 0.000090 -0.009247 0.999957
vn 0.000000 -1.000000 0.000000
vn 0.000000 -1.000000 0.000000
vn 0.000000 0.000000 -1.000000
vn 0.000000 0.000000 -1.000000
vn 0.000000 0.000000 -1.000000
vn 0.000000 0.000000 -1.000000
vn 0.000694 0.843044 0.537845
vn 0.000694 0.843044 0.537845
vn 1.000000 -0.000025 -0.000038
vn 1.000000 -0.000023 -0.000038
vn 1.000000 -0.000028 -0.000037
vn -1.000000 0.000004 0.000000
vn 1.000000 -0.000031 -0.000037
vn 0.000000 -0.914804 0.403897
vn 0.000000 -0.914804 0.403897
vn 0.000000 -0.914804 0.403898
vn 0.000000 -0.914804 0.403898
vn 0.000000 0.400800 0.916166
vn 0.000000 0.400800 0.916166
vn 0.000000 0.400800 0.916166
vn 0.000000 0.400800 0.916166
vn -0.003178 -0.401766 -0.915737
vn -0.003176 -0.401769 -0.915735
vn -0.004913 -0.399411 -0.916759
vn -0.004913 -0.399411 -0.916759
vn -0.998069 0.023556 0.057481
vn -0.998069 0.023556 0.057481
vn -0.998069 0.023556 0.057481
vn 0.000568 -0.841652 -0.540020
vn 0.000568 -0.841652 -0.540020
vn 0.000568 -0.841652 -0.540020
vn 0.000568 -0.841652 -0.540020
vn 0.000195 0.841716 0.539921
vn 0.000196 0.841716 0.539921
vn 0.000986 0.842374 0.538892
vn 0.000986 0.842374 0.538892
vn 0.000000 0.001274 0.999999
vn 0.000000 0.001274 0.999999
vn 0.000000 0.001274 0.999999
vn 0.000000 0.001274 0.999999
vn 0.000000 -1.000000 -0.000240
vn 0.000000 -1.000000 -0.000240
vn 0.000000 -1.000000 -0.000240
vn 0.000000 -1.000000 -0.000240
vn 0.000000 -1.000000 0.000000
vn -0.001578 0.916845 -0.399240
vn -0.001578 0.916845 -0.399240
vn -0.001578 0.916845 -0.399240
vn -0.001578 0.916845 -0.399240
vn 0.000000 0.917515 -0.397701
vn 0.000000 0.917515 -0.397701
vn 0.000000 0.917515 -0.397701
vn 0.000000 0.917515 -0.397701
vn 0.000000 -0.400474 -0.916308
vn 0.000000 -0.400474 -0.916308
vn 0.000000 -0.400474 -0.916308
vn 0.000000 -0.400474 -0.916308
vn 1.000000 0.000000 0.000000
vn 1.000000 0.000000 0.000000
vn 1.000000 0.000000 0.000000
vn 1.000000 -0.000000 0.000000
vn 1.000000 -0.000000 0.000000
vn 1.000000 -0.000000 0.000000
vn 1.000000 -0.000000 0.000000
vn -1.000000 -0.000661 -0.000297
vn -1.000000 -0.000354 -0.000214
vn -0.996296 -0.082941 -0.022684
vn -1.000000 -0.000008 -0.000028
vn -1.000000 -0.000129 0.000136
vn -1.000000 -0.000166 0.000187
vn -1.000000 -0.000008 -0.000028
vn 1.000000 0.000000 0.000000
vn 1.000000 0.000000 0.000000
vn 1.000000 0.000000 0.000000
vn 1.000000 0.000000 0.000000
vn -0.996960 -0.046235 0.062722
vn -0.014100 0.400371 0.916245
vn -0.014100 0.400371 0.916245
vn -0.014100 0.400371 0.916245
vn -0.014100 0.400371 0.916245
vn -1.000000 -0.000018 -0.000122
vn -1.000000 -0.000018 -0.000122
vn -0.003134 -0.401826 -0.915711
vn -0.003134 -0.401826 -0.915711
vn 0.000000 1.000000 0.000016
vn 0.000000 1.000000 0.000016
vn 0.000000 1.000000 0.000016
vn 0.000000 1.000000 0.000016
vn 0.000000 -0.000098 -1.000000
vn 0.000000 -0.000098 -1.000000
vn 0.000000 -0.000098 -1.000000
vn 0.000000 -0.000098 -1.000000
vn 0.003679 -0.005630 0.999977
vn 0.003679 -0.005630 0.999977
vn -0.001318 0.999999 0.000057
vn -0.001318 0.999999 0.000057
vn -0.001318 0.999999 0.000057
vn -0.001318 0.999999 0.000057
vn 1.000000 0.000001 0.000000
vn 1.000000 0.000001 0.000000
vn 1.000000 0.000001 0.000000
vn 1.000000 0.000001 0.000000
vn 0.000035 -0.999999 0.001108
vn 0.000035 -0.999999 0.001108
vn -0.000005 -0.999999 0.001151
vn -0.000005 -0.999999 0.001151
vn -1.000000 0.000000 0.000000
vn -1.000000 0.000000 0.000000
vn -1.000000 0.000000 0.000000
vn -1.000000 0.000000 0.000000
vn 1.000000 0.000000 0.000000
vn 1.000000 0.000000 0.000000
vn 1.000000 0.000000 0.000000
vn 1.000000 0.000000 0.000000
vn -0.000052 -0.000050 -1.000000
vn -0.000052 -0.000050 -1.000000
vn -0.000052 -0.000050 -1.000000
vn -0.000052 -0.000050 -1.000000
vn 0.000137 -1.000000 -0.000270
vn 0.000137 -1.000000 -0.000270
vn 0.000137 -1.000000 -0.000270
vn 0.000137 -1.000000 -0.000270
vn 0.000166 0.841718 0.539918
vn 0.000167 0.841717 0.539918
vn 1.000000 0.000002 0.000000
vn 1.000000 0.000002 0.000000
vn -0.001251 -0.999996 0.002482
vn -0.001251 -0.999996 0.002482
vn -1.000000 0.000002 0.000007
vn -1.000000 0.000002 0.000007
vn -0.000694 0.843044 0.537845
vn -0.000694 0.843044 0.537845
vn -1.000000 -0.000025 -0.000038
vn -1.000000 -0.000024 -0.000037
vn -1.000000 -0.000026 -0.000038
vn 1.000000 0.000007 0.000000
vn -1.000000 -0.000023 -0.000037
s off
f 7/1/1 10/2/2 9/3/3 8/4/4
f 10/5/5 12/6/6 11/7/7 9/8/8
f 7/13/9 8/14/10 11/15/11 12/16/12
f 1/17/13 2/18/14 4/19/15 3/20/16
f 3/21/17 4/22/18 6/23/19 5/24/20
f 1/9/21 5/10/22 6/11/23 2/12/24
s 1
f 2/33/25 8/34/26 9/35/27 4/36/28
s 2
f 3/41/29 10/42/30 7/43/31 1/44/32
s 1
f 4/29/28 9/30/27 11/31/33 6/32/34
s 2
f 5/37/35 12/38/36 10/39/30 3/40/29
f 1/26/32 7/25/31 12/28/36 5/27/35
s 1
f 6/45/34 11/46/33 8/47/26 2/48/25
s 3
f 23/53/37 19/54/38 16/55/39 15/56/40
s off
f 18/57/41 21/58/42 17/59/43
f 13/60/44 36/61/45 37/62/46 14/63/47
s 4
f 21/64/48 18/65/49 20/66/50 22/67/51
s 5
f 41/72/52 31/73/53 30/74/54
s off
f 19/75/55 20/66/56 18/65/57 16/76/58
s 6
f 14/81/59 19/82/60 23/83/61
s 7
f 14/84/62 22/85/63 20/86/64 19/87/65
s 8
f 15/88/66 17/89/67 13/90/68
s 9
f 42/91/69 36/92/70 13/93/71 21/58/72
s 7
f 14/84/62 37/94/73 43/95/74 22/85/63
s 6
f 14/81/59 23/83/61 26/96/75 24/97/76
s 9
f 21/58/72 13/93/71 17/59/77
s off
f 27/98/78 13/99/79 14/100/80 24/101/81
s 8
f 25/102/82 15/88/66 13/90/68 27/103/83
s 3
f 26/104/84 23/53/37 15/56/40 25/105/85
s 10
f 31/110/86 41/111/87 38/112/88 28/113/89
s off
f 36/114/90 27/115/91 24/116/92 37/117/93
s 11
f 37/118/94 24/119/95 34/120/96 39/121/97
s 12
f 32/122/98 40/123/99 39/124/100 34/125/101
s 13
f 27/126/102 36/127/103 40/128/104 32/129/105
s off
f 26/96/106 35/130/107 34/131/108 24/97/109
f 25/105/110 33/132/111 35/133/112 26/104/113
f 32/122/114 34/125/115 35/134/116 33/135/117
s 4
f 21/64/48 22/67/51 43/136/118 42/137/119
s 11
f 28/138/120 37/118/94 39/121/97 31/139/121
s 12
f 40/123/99 30/74/122 31/73/123 39/124/100
s 13
f 36/127/103 29/140/124 30/141/125 40/128/104
s off
f 29/143/126 38/142/127 70/248/128 61/249/129
s 10
f 38/145/88 41/144/87 73/250/130 70/251/131
s 5
f 41/146/52 30/147/54 62/252/132 73/253/133
s off
f 30/149/134 29/148/135 61/254/136 62/255/137
s 4
f 42/137/119 43/136/118 28/150/138 38/151/139
s 14
f 42/91/140 38/152/141 44/153/142
s 7
f 37/94/73 28/154/143 43/95/74
s 14
f 42/91/140 44/153/142 36/92/144
s off
f 15/49/145 47/155/146 49/156/147 17/50/148
f 17/52/149 49/157/150 50/158/151 18/51/152
s 15
f 55/159/153 47/160/154 48/161/155 51/162/156
s off
f 50/163/157 49/164/158 53/165/159
f 45/166/160 46/167/161 69/168/162 68/169/163
s 16
f 53/170/164 54/171/165 52/172/166 50/173/167
s off
f 32/69/168 64/174/169 59/175/170 27/68/171
f 33/71/172 65/176/173 64/177/174 32/70/175
s 5
f 73/178/133 62/179/132 63/180/176
s off
f 51/181/177 48/182/178 50/173/179 52/172/180
f 18/78/181 50/183/182 48/184/183 16/77/184
f 16/80/185 48/185/186 47/186/187 15/79/188
s 17
f 46/187/189 55/188/190 51/189/191
s 18
f 46/190/192 51/191/193 52/192/194 54/193/195
s 19
f 47/194/196 45/195/197 49/196/198
s 20
f 74/197/199 53/165/200 45/198/201 68/199/202
s 18
f 46/190/192 54/193/195 75/200/203 69/201/204
s 17
f 46/187/189 56/202/205 58/203/206 55/188/190
s 20
f 53/165/200 49/164/207 45/198/201
s off
f 59/204/208 56/205/209 46/206/210 45/207/211
s 19
f 57/208/212 59/209/213 45/195/197 47/194/196
s 15
f 58/210/214 57/211/215 47/160/154 55/159/153
s off
f 27/106/216 59/212/217 57/213/218 25/107/219
f 25/108/220 57/214/221 65/215/222 33/109/223
s 10
f 63/216/224 60/217/225 70/218/131 73/219/130
s off
f 68/220/226 69/221/227 56/222/228 59/223/229
s 21
f 69/224/230 71/225/231 66/226/232 56/227/233
s 22
f 64/228/234 66/229/235 71/230/236 72/231/237
s 23
f 59/232/238 64/233/239 72/234/240 68/235/241
s off
f 58/203/242 56/202/243 66/236/244 67/237/245
f 57/211/246 58/210/247 67/238/248 65/239/249
f 64/228/250 65/240/251 67/241/252 66/229/253
s 16
f 53/170/164 74/242/254 75/243/255 54/171/165
s 21
f 60/244/256 63/245/257 71/225/231 69/224/230
s 22
f 72/231/237 71/230/236 63/180/258 62/179/259
s 23
f 68/235/241 72/234/240 62/246/260 61/247/261
s 16
f 74/242/254 70/256/262 60/257/263 75/243/255
s 24
f 74/197/264 76/258/265 70/259/266
s 18
f 69/201/204 75/200/203 60/260/267
s 24
f 74/197/264 68/199/268 76/258/265
